<svg width="15" height="15" viewBox="0 0 15 15" fill="none" xmlns="http://www.w3.org/2000/svg">
<path d="M14.75 14.5H13.25V6.25C13.25 6.11194 13.1381 6 13 6H9.5V0.25C9.5 0.111937 9.38806 0 9.25 0H2.75C2.61194 0 2.5 0.111937 2.5 0.25V14.5H0.25C0.111937 14.5 0 14.6119 0 14.75C0 14.8881 0.111937 15 0.25 15H14.75C14.8881 15 15 14.8881 15 14.75C15 14.6119 14.8881 14.5 14.75 14.5ZM5.25 14.5H4.25V12.25C4.25 12.1119 4.36194 12 4.5 12H5C5.13806 12 5.25 12.1119 5.25 12.25V14.5ZM6.25 6.25V14.5H5.75V12.25C5.75 11.8358 5.41422 11.5 5 11.5H4.5C4.08578 11.5 3.75 11.8358 3.75 12.25V14.5H3V0.5H9V6H6.5C6.36194 6 6.25 6.11194 6.25 6.25ZM12.75 14.5H6.75V6.5H12.75V14.5Z" fill="#767676"/>
<path d="M7.99951 3.50012H6.49951C6.36145 3.50012 6.24951 3.61206 6.24951 3.75012V5.25012C6.24951 5.38818 6.36145 5.50012 6.49951 5.50012H7.99951C8.13757 5.50012 8.24951 5.38818 8.24951 5.25012V3.75012C8.24951 3.61206 8.13757 3.50012 7.99951 3.50012ZM7.74951 5.00012H6.74951V4.00012H7.74951V5.00012Z" fill="#767676"/>
<path d="M7.99951 0.999512H6.49951C6.36145 0.999512 6.24951 1.11145 6.24951 1.24951V2.74951C6.24951 2.88757 6.36145 2.99951 6.49951 2.99951H7.99951C8.13757 2.99951 8.24951 2.88757 8.24951 2.74951V1.24951C8.24951 1.11145 8.13757 0.999512 7.99951 0.999512ZM7.74951 2.49951H6.74951V1.49951H7.74951V2.49951Z" fill="#767676"/>
<path d="M5.5 3.50012H4C3.86194 3.50012 3.75 3.61206 3.75 3.75012V5.25012C3.75 5.38818 3.86194 5.50012 4 5.50012H5.5C5.63806 5.50012 5.75 5.38818 5.75 5.25012V3.75012C5.75 3.61206 5.63806 3.50012 5.5 3.50012ZM5.25 5.00012H4.25V4.00012H5.25V5.00012Z" fill="#767676"/>
<path d="M5.5 0.999512H4C3.86194 0.999512 3.75 1.11145 3.75 1.24951V2.74951C3.75 2.88757 3.86194 2.99951 4 2.99951H5.5C5.63806 2.99951 5.75 2.88757 5.75 2.74951V1.24951C5.75 1.11145 5.63806 0.999512 5.5 0.999512ZM5.25 2.49951H4.25V1.49951H5.25V2.49951Z" fill="#767676"/>
<path d="M5.5 5.99988H4C3.86194 5.99988 3.75 6.11182 3.75 6.24988V7.74988C3.75 7.88794 3.86194 7.99988 4 7.99988H5.5C5.63806 7.99988 5.75 7.88794 5.75 7.74988V6.24988C5.75 6.11182 5.63806 5.99988 5.5 5.99988ZM5.25 7.49988H4.25V6.49988H5.25V7.49988Z" fill="#767676"/>
<path d="M5.5 8.49951H4C3.86194 8.49951 3.75 8.61145 3.75 8.74951V10.2495C3.75 10.3876 3.86194 10.4995 4 10.4995H5.5C5.63806 10.4995 5.75 10.3876 5.75 10.2495V8.74951C5.75 8.61145 5.63806 8.49951 5.5 8.49951ZM5.25 9.99951H4.25V8.99951H5.25V9.99951Z" fill="#767676"/>
<path d="M10.2495 11.4999H11.7495C11.8876 11.4999 11.9995 11.388 11.9995 11.2499V9.74994C11.9995 9.61188 11.8876 9.49994 11.7495 9.49994H10.2495C10.1114 9.49994 9.99951 9.61188 9.99951 9.74994V11.2499C9.99951 11.388 10.1114 11.4999 10.2495 11.4999ZM10.4995 9.99994H11.4995V10.9999H10.4995V9.99994Z" fill="#767676"/>
<path d="M10.2495 9.00024H11.7495C11.8876 9.00024 11.9995 8.88831 11.9995 8.75024V7.25024C11.9995 7.11218 11.8876 7.00024 11.7495 7.00024H10.2495C10.1114 7.00024 9.99951 7.11218 9.99951 7.25024V8.75024C9.99951 8.88831 10.1114 9.00024 10.2495 9.00024ZM10.4995 7.50024H11.4995V8.50024H10.4995V7.50024Z" fill="#767676"/>
<path d="M10.2495 13.9996H11.7495C11.8876 13.9996 11.9995 13.8877 11.9995 13.7496V12.2496C11.9995 12.1116 11.8876 11.9996 11.7495 11.9996H10.2495C10.1114 11.9996 9.99951 12.1116 9.99951 12.2496V13.7496C9.99951 13.8877 10.1114 13.9996 10.2495 13.9996ZM10.4995 12.4996H11.4995V13.4996H10.4995V12.4996Z" fill="#767676"/>
<path d="M7.75 11.4999H9.25C9.38806 11.4999 9.5 11.388 9.5 11.2499V9.74994C9.5 9.61188 9.38806 9.49994 9.25 9.49994H7.75C7.61194 9.49994 7.5 9.61188 7.5 9.74994V11.2499C7.5 11.388 7.61194 11.4999 7.75 11.4999ZM8 9.99994H9V10.9999H8V9.99994Z" fill="#767676"/>
<path d="M7.75 9.00024H9.25C9.38806 9.00024 9.5 8.88831 9.5 8.75024V7.25024C9.5 7.11218 9.38806 7.00024 9.25 7.00024H7.75C7.61194 7.00024 7.5 7.11218 7.5 7.25024V8.75024C7.5 8.88831 7.61194 9.00024 7.75 9.00024ZM8 7.50024H9V8.50024H8V7.50024Z" fill="#767676"/>
<path d="M7.75 13.9996H9.25C9.38806 13.9996 9.5 13.8877 9.5 13.7496V12.2496C9.5 12.1116 9.38806 11.9996 9.25 11.9996H7.75C7.61194 11.9996 7.5 12.1116 7.5 12.2496V13.7496C7.5 13.8877 7.61194 13.9996 7.75 13.9996ZM8 12.4996H9V13.4996H8V12.4996Z" fill="#767676"/>
</svg>
