<svg width="21" height="14" viewBox="0 0 21 14" fill="none" xmlns="http://www.w3.org/2000/svg">
<path d="M18.6384 0H1.79599C0.80568 0 0 0.80568 0 1.79599V12.204C0 13.1943 0.80568 14 1.79599 14H18.6384C19.6287 14 20.4343 13.1943 20.4343 12.204V1.79599C20.4343 0.80568 19.6287 0 18.6384 0ZM18.404 1.19732L18.1643 1.39692L10.9297 7.4211C10.5168 7.76489 9.91744 7.76489 9.5046 7.4211L2.27009 1.39692L2.03038 1.19732H18.404ZM1.19732 2.06171L7.09184 6.97007L1.19732 10.893V2.06171ZM18.6384 12.8027H1.79599C1.50671 12.8027 1.26477 12.5964 1.20934 12.3233L8.05185 7.76944L8.73848 8.3412C9.16688 8.69793 9.69207 8.87629 10.2172 8.87629C10.7424 8.87629 11.2675 8.69793 11.6959 8.3412L12.3826 7.76944L19.225 12.3233C19.1696 12.5965 18.9276 12.8027 18.6384 12.8027ZM19.237 10.893L13.3425 6.97011L19.237 2.06171V10.893Z" fill="#767676"/>
</svg>
