<svg width="1350" height="452" viewBox="0 0 1350 452" fill="none" xmlns="http://www.w3.org/2000/svg">
<mask id="mask0" style="mask-type:alpha" maskUnits="userSpaceOnUse" x="0" y="0" width="1350" height="452">
<rect width="1350" height="452" fill="white"/>
</mask>
<g mask="url(#mask0)">
<path d="M674.937 -163.337L294.348 217.252L674.937 597.842L1055.53 217.252L674.937 -163.337Z" fill="#F2F2F2"/>
<path d="M674.937 -163.337L294.348 217.252L674.937 597.842L1055.53 217.252L674.937 -163.337Z" stroke="white" stroke-width="2"/>
<path d="M674.946 83.9465L541.644 217.249L674.946 350.552L808.249 217.249L674.946 83.9465Z" fill="white"/>
<path d="M674.945 83.946L541.643 217.249L674.945 350.551L808.248 217.249L674.945 83.946Z" stroke="white" stroke-width="2"/>
<path d="M373.258 1.30201L239.955 134.604L373.258 267.907L506.56 134.605L373.258 1.30201Z" fill="#F2F2F2"/>
<path d="M373.258 1.30201L239.955 134.604L373.258 267.907L506.56 134.605L373.258 1.30201Z" stroke="white" stroke-width="2"/>
<path d="M861.293 205.019L748.242 318.07L861.293 431.121L974.344 318.07L861.293 205.019Z" fill="#F2F2F2"/>
<path d="M861.293 205.019L748.242 318.07L861.293 431.121L974.344 318.07L861.293 205.019Z" stroke="white" stroke-width="2"/>
<path d="M363.842 198.462L277.95 284.354L363.842 370.245L449.733 284.354L363.842 198.462Z" fill="#F2F2F2"/>
<path d="M363.842 198.461L277.95 284.353L363.842 370.244L449.733 284.353L363.842 198.461Z" stroke="white" stroke-width="2"/>
<path d="M1169.83 20.5819L1106.46 83.9521L1169.83 147.322L1233.2 83.9521L1169.83 20.5819Z" fill="#F2F2F2"/>
<path d="M1169.83 20.5819L1106.46 83.9521L1169.83 147.322L1233.2 83.9521L1169.83 20.5819Z" stroke="white" stroke-width="2"/>
<path d="M193.144 38.0651L155.738 75.4707L193.144 112.876L230.549 75.4707L193.144 38.0651Z" fill="#F2F2F2"/>
<path d="M193.136 38.0712L155.737 75.4697L193.136 112.868L230.534 75.4697L193.136 38.0712Z" stroke="white" stroke-width="2"/>
<path d="M1057.73 345.307L1020.33 382.712L1057.73 420.118L1095.14 382.712L1057.73 345.307Z" fill="#F2F2F2"/>
<path d="M1057.72 345.312L1020.32 382.711L1057.72 420.109L1095.12 382.711L1057.72 345.312Z" stroke="white" stroke-width="2"/>
<path d="M994.594 42.6819L861.292 175.984L994.594 309.287L1127.9 175.984L994.594 42.6819Z" fill="#F2F2F2"/>
<path d="M994.593 42.6809L861.291 175.983L994.593 309.286L1127.9 175.983L994.593 42.6809Z" stroke="white" stroke-width="2"/>
</g>
</svg>
