<svg width="12" height="15" viewBox="0 0 12 15" fill="none" xmlns="http://www.w3.org/2000/svg">
<path d="M9.84375 15H1.40625C0.63125 15 0 14.3694 0 13.5938V7.03125C0 6.25562 0.63125 5.625 1.40625 5.625H9.84375C10.6188 5.625 11.25 6.25562 11.25 7.03125V13.5938C11.25 14.3694 10.6188 15 9.84375 15ZM1.40625 6.5625C1.14813 6.5625 0.9375 6.7725 0.9375 7.03125V13.5938C0.9375 13.8525 1.14813 14.0625 1.40625 14.0625H9.84375C10.1019 14.0625 10.3125 13.8525 10.3125 13.5938V7.03125C10.3125 6.7725 10.1019 6.5625 9.84375 6.5625H1.40625Z" fill="#767676"/>
<path d="M8.90625 6.5625C8.6475 6.5625 8.4375 6.3525 8.4375 6.09375V3.75C8.4375 2.19938 7.17563 0.9375 5.625 0.9375C4.07438 0.9375 2.8125 2.19938 2.8125 3.75V6.09375C2.8125 6.3525 2.6025 6.5625 2.34375 6.5625C2.085 6.5625 1.875 6.3525 1.875 6.09375V3.75C1.875 1.68187 3.55688 0 5.625 0C7.69313 0 9.375 1.68187 9.375 3.75V6.09375C9.375 6.3525 9.165 6.5625 8.90625 6.5625Z" fill="#767676"/>
<path d="M5.625 10.6251C4.93563 10.6251 4.375 10.0645 4.375 9.37512C4.375 8.68575 4.93563 8.12512 5.625 8.12512C6.31438 8.12512 6.875 8.68575 6.875 9.37512C6.875 10.0645 6.31438 10.6251 5.625 10.6251ZM5.625 9.06262C5.45313 9.06262 5.3125 9.20262 5.3125 9.37512C5.3125 9.54762 5.45313 9.68762 5.625 9.68762C5.79688 9.68762 5.9375 9.54762 5.9375 9.37512C5.9375 9.20262 5.79688 9.06262 5.625 9.06262Z" fill="#767676"/>
<path d="M5.625 12.5C5.36625 12.5 5.15625 12.29 5.15625 12.0313V10.3125C5.15625 10.0538 5.36625 9.84375 5.625 9.84375C5.88375 9.84375 6.09375 10.0538 6.09375 10.3125V12.0313C6.09375 12.29 5.88375 12.5 5.625 12.5Z" fill="#767676"/>
</svg>
