<svg width="16" height="15" viewBox="0 0 16 15" fill="none" xmlns="http://www.w3.org/2000/svg">
<path d="M14.6337 11.2615L12.456 9.08285C12.1635 8.79189 11.7719 8.63157 11.3534 8.63157C10.9179 8.63157 10.5067 8.80304 10.1957 9.11414L9.34803 9.96167C8.68931 9.59553 7.8138 9.09195 6.90481 8.18297C5.99689 7.27473 5.49325 6.40178 5.12524 5.7395L5.97376 4.89161C6.60462 4.25944 6.61753 3.24524 6.00262 2.6309L3.82532 0.453525C3.53367 0.161065 3.14204 0 2.72248 0C2.29669 0 1.89391 0.163932 1.5848 0.462314C1.39781 0.612908 0.459404 1.4413 0.10966 3.14968C-0.380017 5.54091 0.74507 7.84164 3.99305 11.0909C7.62132 14.7181 10.7188 15 11.5817 15C11.7613 15 11.8697 14.9889 11.8986 14.9855C13.5908 14.7872 14.1966 14.0357 14.639 13.487C15.2122 12.7759 15.2102 11.8402 14.6337 11.2615ZM13.9111 12.9002C13.4953 13.4159 13.1026 13.903 11.7899 14.0569C11.7892 14.0569 11.7174 14.065 11.5817 14.065C10.8096 14.065 8.02828 13.8028 4.6542 10.4298C1.65898 7.4333 0.607691 5.37842 1.02562 3.33718C1.33068 1.84708 2.14055 1.21372 2.17203 1.18966L2.19995 1.16903L2.22445 1.14447C2.35965 1.0094 2.53648 0.934976 2.72242 0.934976C2.89171 0.934976 3.04829 0.998429 3.16373 1.11424L5.34153 3.29211C5.59211 3.54244 5.57877 3.96367 5.31218 4.23083L4.35258 5.18961L4.33681 5.20613C4.08673 5.48158 4.11616 5.85382 4.25391 6.09623C4.6514 6.81354 5.19587 7.79595 6.24354 8.84393C7.28772 9.88811 8.26869 10.4321 8.98401 10.8289C9.05563 10.8691 9.20348 10.9365 9.38855 10.9365C9.60708 10.9365 9.80773 10.844 9.95626 10.6754L10.8568 9.77511C10.9913 9.6406 11.1676 9.56648 11.3532 9.56648C11.5229 9.56648 11.6803 9.63012 11.7955 9.74469L13.9718 11.9219C14.2482 12.1994 14.1341 12.6235 13.9111 12.9002Z" fill="#767676"/>
<path d="M9.12842 2.29084C9.93169 2.38328 10.8775 2.86984 11.538 3.53037C12.2046 4.197 12.6924 5.15243 12.7804 5.96442C12.8064 6.20396 13.009 6.38148 13.2446 6.38148C13.2615 6.38148 13.2785 6.38055 13.2956 6.37874C13.5523 6.35088 13.7378 6.12025 13.7099 5.86357C13.5985 4.83715 13.0196 3.68981 12.1991 2.86928C11.3863 2.05641 10.2507 1.47891 9.23532 1.36203C8.97895 1.3323 8.74702 1.51655 8.71747 1.77299C8.68793 2.02942 8.87187 2.26129 9.12842 2.29084Z" fill="#767676"/>
<path d="M8.69195 4.24881C9.1264 4.29886 9.72765 4.62112 10.1215 5.01499C10.5188 5.41229 10.8416 6.01928 10.8892 6.45841C10.9152 6.69801 11.1178 6.87553 11.3534 6.87553C11.3702 6.87553 11.3872 6.8746 11.4043 6.87279C11.661 6.84493 11.8466 6.6143 11.8187 6.35762C11.7374 5.60789 11.2397 4.81098 10.7826 4.35384C10.3295 3.90075 9.54041 3.4054 8.79885 3.31994C8.5421 3.29009 8.31048 3.4744 8.28093 3.73083C8.25145 3.98733 8.43545 4.21927 8.69195 4.24881Z" fill="#767676"/>
</svg>
