<svg width="47" height="44" viewBox="0 0 47 44" fill="none" xmlns="http://www.w3.org/2000/svg">
<path d="M12.2386 34.2719C9.10348 34.2719 6.31474 32.2645 5.30208 29.276L5.23359 29.0508C4.99477 28.2594 4.89472 27.5939 4.89472 26.928V13.5756L0.143777 29.4345C-0.467259 31.7671 0.925143 34.1855 3.26135 34.8299L33.5438 42.9397C33.9218 43.0376 34.2997 43.0846 34.672 43.0846C36.6223 43.0846 38.4045 41.7901 38.904 39.8824L40.6683 34.2719H12.2386Z" fill="#E3E3E3"/>
<path d="M17.6239 13.7087C19.784 13.7087 21.5404 11.952 21.5404 9.79187C21.5404 7.63173 19.784 5.875 17.6239 5.875C15.4638 5.875 13.707 7.63173 13.707 9.79187C13.707 11.952 15.4638 13.7087 17.6239 13.7087Z" fill="#E3E3E3"/>
<path d="M42.104 0H12.7283C10.03 0 7.83252 2.19743 7.83252 4.89617V26.4381C7.83252 29.1368 10.03 31.3342 12.7283 31.3342H42.104C44.8027 31.3342 47.0001 29.1368 47.0001 26.4381V4.89617C47.0001 2.19743 44.8027 0 42.104 0ZM12.7283 3.91687H42.104C42.6447 3.91687 43.0833 4.35542 43.0833 4.89617V18.7987L36.8969 11.5799C36.2407 10.8104 35.2908 10.3991 34.2706 10.3758C33.2561 10.3815 32.3044 10.8319 31.6543 11.6115L24.3807 20.3417L22.0111 17.9779C20.6718 16.6385 18.4919 16.6385 17.1544 17.9779L11.7494 23.3811V4.89617C11.7494 4.35542 12.1879 3.91687 12.7283 3.91687Z" fill="#E3E3E3"/>
</svg>
