<svg width="15" height="15" viewBox="0 0 15 15" fill="none" xmlns="http://www.w3.org/2000/svg">
<path d="M12.8033 2.19671C11.3868 0.780147 9.50332 0 7.5 0C5.49668 0 3.61324 0.780147 2.19668 2.19671C0.780117 3.61327 0 5.49668 0 7.5C0 9.50332 0.780117 11.3868 2.19668 12.8033C3.61324 14.2198 5.49668 15 7.5 15C9.50332 15 11.3868 14.2199 12.8033 12.8033C14.2199 11.3867 15 9.50332 15 7.5C15 5.49668 14.2199 3.61324 12.8033 2.19671ZM7.5 14.1124C3.85392 14.1124 0.887578 11.1461 0.887578 7.5C0.887578 3.85392 3.85392 0.887578 7.5 0.887578C11.1461 0.887578 14.1124 3.85392 14.1124 7.5C14.1124 11.1461 11.1461 14.1124 7.5 14.1124Z" fill="#767676"/>
<path d="M7.50009 1.47205C7.48371 1.47205 7.46742 1.47254 7.45107 1.47266C7.44694 1.47254 7.4429 1.47205 7.43874 1.47205C7.4318 1.47205 7.425 1.47275 7.41814 1.47307C4.14105 1.51702 1.48711 4.1888 1.47252 7.47278C1.47249 7.47509 1.47217 7.47732 1.47217 7.4796C1.47217 7.48098 1.47237 7.48233 1.47237 7.48368C1.47237 7.48913 1.47217 7.49452 1.47217 7.49991C1.47217 10.8237 4.17624 13.5278 7.50006 13.5278C10.8239 13.5278 13.528 10.8237 13.528 7.49994C13.528 4.17615 10.8239 1.47205 7.50009 1.47205ZM7.94388 12.6209V12.0583C7.94388 11.8132 7.74519 11.6145 7.50009 11.6145C7.25499 11.6145 7.0563 11.8132 7.0563 12.0583V12.6209C4.56847 12.4071 2.58138 10.4139 2.37729 7.92336H2.85999C3.10509 7.92336 3.30378 7.72467 3.30378 7.47958C3.30378 7.23448 3.10509 7.03579 2.85999 7.03579H2.38096C2.60136 4.58469 4.54939 2.62406 6.99498 2.38444V2.83954C6.99498 3.08463 7.19367 3.28333 7.43877 3.28333C7.68387 3.28333 7.88256 3.08463 7.88256 2.83954V2.37383C10.3649 2.55729 12.3625 4.51127 12.6138 6.9745H12.0788C11.8337 6.9745 11.635 7.17319 11.635 7.41829C11.635 7.66338 11.8337 7.86207 12.0788 7.86207H12.6275C12.4513 10.3811 10.4521 12.4054 7.94388 12.6209Z" fill="#767676"/>
<path d="M9.29619 5.70362C9.12293 5.53027 8.84194 5.53027 8.66865 5.70362L7.49977 6.8725L5.23269 4.60545C5.05939 4.43213 4.77841 4.43213 4.60509 4.60545C4.43177 4.77877 4.43177 5.05973 4.60509 5.23305L7.18594 7.8139C7.26917 7.89713 7.38202 7.94389 7.49974 7.94389C7.61742 7.94389 7.73033 7.8971 7.81353 7.8139L9.29619 6.33122C9.46951 6.15793 9.46951 5.87694 9.29619 5.70362Z" fill="#767676"/>
</svg>
