<svg width="14" height="16" viewBox="0 0 14 16" fill="none" xmlns="http://www.w3.org/2000/svg">
<path d="M7.00001 8.46216C2.48601 8.46216 0 10.5976 0 14.4752C0 14.7781 0.245452 15.0235 0.548299 15.0235H13.4517C13.7545 15.0235 14 14.7781 14 14.4752C14 10.5978 11.514 8.46216 7.00001 8.46216ZM1.11655 13.9269C1.33222 11.0277 3.30884 9.55879 7.00001 9.55879C10.6912 9.55879 12.6678 11.0277 12.8837 13.9269H1.11655Z" fill="#767676"/>
<path d="M6.99986 0C4.92635 0 3.36279 1.59502 3.36279 3.71001C3.36279 5.88696 4.99437 7.65779 6.99986 7.65779C9.00535 7.65779 10.6369 5.88696 10.6369 3.71019C10.6369 1.59502 9.07337 0 6.99986 0ZM6.99986 6.56137C5.59895 6.56137 4.45939 5.28235 4.45939 3.71019C4.45939 2.19578 5.52785 1.0966 6.99986 1.0966C8.44831 1.0966 9.54033 2.22008 9.54033 3.71019C9.54033 5.28235 8.40077 6.56137 6.99986 6.56137Z" fill="#767676"/>
</svg>
