<svg width="141" height="145" viewBox="0 0 141 145" fill="none" xmlns="http://www.w3.org/2000/svg">
<path d="M76.33 118.652C77.45 117.172 78.59 115.663 79.77 114.124C80.95 112.584 82.16 110.886 83.4 109.039C88.98 99.9235 93.85 91.8007 98 84.661C102.15 77.5212 105.72 70.2226 108.69 62.7751C111.67 55.3275 113.15 49.012 113.15 43.8384V31.8428C113.15 29.7476 112.68 28.1191 111.75 26.9473C110.82 25.7756 109.49 25.1897 107.75 25.1897C106.14 25.1897 104.9 25.6167 104.03 26.4806C103.16 27.3445 102.57 28.4468 102.26 29.8072C101.95 31.1676 101.8 32.6968 101.8 34.4247V48.6445H75.96V34.4346C75.96 27.6623 77.17 21.7837 79.59 16.7988C82 11.8039 85.63 7.9312 90.47 5.16071C95.31 2.39021 101.19 1 108.14 1C114.46 1 119.98 2.08238 124.69 4.23721C129.4 6.39204 133.06 9.55973 135.66 13.7502C138.26 17.9407 139.57 23.1044 139.57 29.261V39.2308C139.57 47.4827 138.24 55.9729 135.57 64.7213C132.9 73.4598 129.68 81.5032 125.9 88.8217C122.12 96.1501 117.69 103.995 112.6 112.376C111.98 112.991 111.39 113.637 110.83 114.312C110.27 114.987 109.74 115.573 109.25 116.07H139.75V140.637H76.33V118.652ZM34.67 118.84C36.03 118.84 37.15 118.473 38.02 117.728C38.89 116.993 39.54 115.911 39.97 114.491C40.4 113.071 40.62 111.254 40.62 109.039V34.802C40.62 31.6045 40.12 29.2014 39.13 27.6027C38.14 26.004 36.65 25.1996 34.67 25.1996C32.56 25.1996 31.01 26.004 30.02 27.6027C29.03 29.2014 28.53 31.6045 28.53 34.802V109.049C28.53 112.247 29.03 114.68 30.02 116.348C31.01 118.006 32.56 118.84 34.67 118.84ZM34.67 143.03C27.11 143.03 20.84 141.55 15.88 138.601C10.92 135.642 7.2 131.332 4.72 125.672C2.24 120.012 1 113.051 1 104.799V39.0521C1 30.8002 2.24 23.8789 4.72 18.2684C7.2 12.6678 10.92 8.38798 15.88 5.42882C20.84 2.47958 27.04 1 34.48 1C41.92 1 48.15 2.47958 53.17 5.42882C58.19 8.38798 61.94 12.6976 64.42 18.3578C66.9 24.0179 68.14 30.9193 68.14 39.0422V104.799C68.14 113.051 66.9 120.002 64.42 125.672C61.94 131.332 58.19 135.642 53.17 138.601C48.15 141.56 41.98 143.03 34.67 143.03Z" stroke="#C03633" stroke-width="2"/>
</svg>
