<svg width="141" height="146" viewBox="0 0 141 146" fill="none" xmlns="http://www.w3.org/2000/svg">
<path d="M107.58 144.03C96.67 144.03 88.55 141.36 83.21 136.03C77.87 130.7 75.21 122.64 75.21 111.85V96.23H101.25V112.23C101.25 114.83 101.71 116.79 102.64 118.09C103.57 119.39 105.03 120.04 107.01 120.04C109.12 120.04 110.7 119.33 111.75 117.9C112.8 116.47 113.33 114.4 113.33 111.67V91.02C113.33 87.55 112.49 85.16 110.82 83.86C109.15 82.56 106.76 81.91 103.66 81.91H94.17V59.4H103.66C106.39 59.4 108.56 58.72 110.17 57.35C111.78 55.98 112.59 53.57 112.59 50.1V31.32C112.59 29.34 112.09 27.76 111.1 26.58C110.11 25.4 108.74 24.81 107.01 24.81C105.65 24.81 104.5 25.09 103.57 25.65C102.64 26.21 101.96 27.01 101.52 28.07C101.09 29.12 100.87 30.4 100.87 31.88V46.2H75.21V32.06C75.21 25.74 76.42 20.25 78.84 15.6C81.26 10.95 84.92 7.35 89.81 4.81C94.71 2.27 100.76 1 107.95 1C114.65 1 120.35 2.15 125.06 4.44C129.77 6.73 133.34 9.99 135.76 14.2C138.18 18.42 139.39 23.38 139.39 29.08V46.56C139.39 52.76 138.27 57.63 136.04 61.16C133.81 64.69 131.02 67.2 127.67 68.69V69.25C131.64 70.74 134.68 73.25 136.78 76.78C138.89 80.31 139.94 85.49 139.94 92.31V112.77C139.94 123.56 137.06 131.46 131.29 136.48C125.53 141.52 117.62 144.03 107.58 144.03ZM34.67 119.67C36.03 119.67 37.15 119.3 38.02 118.55C38.89 117.81 39.54 116.72 39.97 115.3C40.4 113.88 40.62 112.04 40.62 109.81V35.04C40.62 31.82 40.12 29.4 39.13 27.79C38.14 26.18 36.65 25.37 34.67 25.37C32.56 25.37 31.01 26.18 30.02 27.79C29.03 29.4 28.53 31.82 28.53 35.04V109.81C28.53 113.03 29.03 115.48 30.02 117.16C31.01 118.83 32.56 119.67 34.67 119.67ZM34.67 144.03C27.11 144.03 20.84 142.54 15.88 139.57C10.92 136.59 7.2 132.25 4.72 126.55C2.24 120.85 1 113.84 1 105.53V39.32C1 31.01 2.24 24.04 4.72 18.39C7.2 12.75 10.92 8.44 15.88 5.46C20.84 2.49 27.04 1 34.48 1C41.92 1 48.15 2.49 53.17 5.46C58.19 8.44 61.94 12.78 64.42 18.48C66.9 24.18 68.14 31.13 68.14 39.31V105.53C68.14 113.84 66.9 120.84 64.42 126.55C61.94 132.25 58.19 136.59 53.17 139.57C48.15 142.55 41.98 144.03 34.67 144.03Z" stroke="#C03633" stroke-width="2"/>
</svg>
