<svg width="112" height="146" viewBox="0 0 112 146" fill="none" xmlns="http://www.w3.org/2000/svg">
<path d="M84.14 35.41C82.65 36.9 80.95 38.01 79.02 38.76C77.1 39.5 74.84 40.06 72.23 40.43V16.81C75.08 15.94 77.44 14.98 79.3 13.93C81.16 12.88 82.86 11.51 84.41 9.84C85.96 8.17 87.42 5.96 88.78 3.24H110.73V141.62H84.13V35.41H84.14ZM34.67 119.67C36.03 119.67 37.15 119.3 38.02 118.55C38.89 117.81 39.54 116.72 39.97 115.29C40.4 113.86 40.62 112.03 40.62 109.8V35.04C40.62 31.82 40.12 29.4 39.13 27.79C38.14 26.18 36.65 25.37 34.67 25.37C32.56 25.37 31.01 26.18 30.02 27.79C29.03 29.4 28.53 31.82 28.53 35.04V109.81C28.53 113.03 29.03 115.48 30.02 117.16C31.01 118.83 32.56 119.67 34.67 119.67ZM34.67 144.03C27.11 144.03 20.84 142.54 15.88 139.57C10.92 136.59 7.2 132.25 4.72 126.55C2.24 120.85 1 113.84 1 105.53V39.32C1 31.01 2.24 24.04 4.72 18.39C7.2 12.75 10.92 8.44 15.88 5.46C20.84 2.49 27.04 1 34.48 1C41.92 1 48.15 2.49 53.17 5.46C58.19 8.44 61.94 12.78 64.42 18.48C66.9 24.18 68.14 31.13 68.14 39.31V105.53C68.14 113.84 66.9 120.84 64.42 126.55C61.94 132.25 58.19 136.59 53.17 139.57C48.15 142.55 41.98 144.03 34.67 144.03Z" stroke="#C03633" stroke-width="2"/>
</svg>
