<svg width="200" height="18" viewBox="0 0 200 18" fill="none" xmlns="http://www.w3.org/2000/svg">
<rect x="8.84668" y="1.41421" width="10.5112" height="10.5112" transform="rotate(45 8.84668 1.41421)" fill="white" stroke="#D0232A" stroke-width="2"/>
<rect x="24.0391" y="1.41421" width="10.5112" height="10.5112" transform="rotate(45 24.0391 1.41421)" fill="white" stroke="#D0232A" stroke-width="2"/>
<rect x="39.2314" y="1.41421" width="10.5112" height="10.5112" transform="rotate(45 39.2314 1.41421)" fill="white" stroke="#D0232A" stroke-width="2"/>
<rect x="54.4238" y="1.41421" width="10.5112" height="10.5112" transform="rotate(45 54.4238 1.41421)" fill="white" stroke="#D0232A" stroke-width="2"/>
<rect x="69.6152" y="1.41421" width="10.5112" height="10.5112" transform="rotate(45 69.6152 1.41421)" fill="white" stroke="#D0232A" stroke-width="2"/>
<rect x="84.8076" y="1.41421" width="10.5112" height="10.5112" transform="rotate(45 84.8076 1.41421)" fill="white" stroke="#D0232A" stroke-width="2"/>
<rect x="100" y="1.41421" width="10.5112" height="10.5112" transform="rotate(45 100 1.41421)" fill="white" stroke="#D0232A" stroke-width="2"/>
<rect x="115.192" y="1.41421" width="10.5112" height="10.5112" transform="rotate(45 115.192 1.41421)" fill="white" stroke="#D0232A" stroke-width="2"/>
<rect x="130.385" y="1.41421" width="10.5112" height="10.5112" transform="rotate(45 130.385 1.41421)" fill="white" stroke="#D0232A" stroke-width="2"/>
<rect x="145.576" y="1.41421" width="10.5112" height="10.5112" transform="rotate(45 145.576 1.41421)" fill="white" stroke="#D0232A" stroke-width="2"/>
<rect x="160.769" y="1.41421" width="10.5112" height="10.5112" transform="rotate(45 160.769 1.41421)" fill="white" stroke="#D0232A" stroke-width="2"/>
<rect x="175.961" y="1.41421" width="10.5112" height="10.5112" transform="rotate(45 175.961 1.41421)" fill="white" stroke="#D0232A" stroke-width="2"/>
<rect x="191.153" y="1.41421" width="10.5112" height="10.5112" transform="rotate(45 191.153 1.41421)" fill="white" stroke="#D0232A" stroke-width="2"/>
</svg>
